<?xml version="1.0" encoding="utf-8"?>
<svg xmlns="http://www.w3.org/2000/svg" width="360" height="812" viewBox="0 0 360 812">
  <rect width="100%" height="100%" fill="#f7f7f6"/>
  <rect x="16" y="16" width="328" height="780" rx="6" fill="#ffffff" stroke="#e0e6e0"/>

  <!-- Header: Peak utilization -->
  <rect x="28" y="28" width="296" height="68" rx="6" fill="#f1f6f2" />
  <text x="44" y="52" font-family="Segoe UI, Arial" font-size="13" fill="#2a493b">Peak utilization</text>
  <text x="44" y="74" font-family="Segoe UI, Arial" font-size="22" font-weight="700" fill="#2a493b">20.89%</text>
  <text x="210" y="60" font-family="Segoe UI, Arial" font-size="11" fill="#516b5f">Reason:</text>
  <text x="210" y="76" font-family="Segoe UI, Arial" font-size="11" fill="#234c3c">Major axis bending</text>
  <!-- K control (primary interaction) -->
  <text x="44" y="98" font-family="Segoe UI, Arial" font-size="11" fill="#516b5f">K (Major)</text>
  <rect x="110" y="84" width="56" height="24" rx="4" fill="#ffffff" stroke="#cfe3d3"/>
  <text x="136" y="101" font-family="Segoe UI, Arial" font-size="12" font-weight="700" fill="#214f3f">1</text>
  <polygon points="164,86 156,92 164,98" fill="#9aaea6"/>
  <polygon points="116,98 124,92 116,86" fill="#9aaea6"/>
  <rect x="172" y="84" width="28" height="24" rx="4" fill="#2f6f52"/>
  <text x="183" y="100" font-family="Segoe UI, Arial" font-size="12" fill="#fff">Edit</text>

  <!-- KPI row -->
  <g>
    <rect x="28" y="104" width="296" height="44" rx="6" fill="#ffffff" stroke="#ebf0ec"/>
    <text x="40" y="132" font-family="Segoe UI, Arial" font-size="12" fill="#333">Cr</text>
    <text x="72" y="132" font-family="Segoe UI, Arial" font-size="12" font-weight="600">0 kN</text>

    <text x="140" y="132" font-family="Segoe UI, Arial" font-size="12" fill="#333">Tr</text>
    <text x="172" y="132" font-family="Segoe UI, Arial" font-size="12" font-weight="600">1609.37 kN</text>

    <text x="40" y="152" font-family="Segoe UI, Arial" font-size="12" fill="#333">KL/r (Maj)</text>
    <text x="120" y="152" font-family="Segoe UI, Arial" font-size="12" font-weight="600">45.82</text>

    <text x="200" y="152" font-family="Segoe UI, Arial" font-size="12" fill="#333">KL/r (Min)</text>
    <text x="268" y="152" font-family="Segoe UI, Arial" font-size="12" font-weight="600">142.51</text>
  </g>

  <!-- Effective Length (expanded) -->
  <rect x="28" y="156" width="296" height="240" rx="6" fill="#fbfdfb" stroke="#e9efe9"/>
  <text x="40" y="178" font-family="Segoe UI, Arial" font-size="13" font-weight="700" fill="#1f4537">Effective Length</text>
  <text x="40" y="196" font-family="Segoe UI, Arial" font-size="12" fill="#233e32">Un-braced length of major axis</text>
  <g id="major-length">
    <text x="40" y="212" font-family="Segoe UI, Arial" font-size="12" fill="#516b5f">K(2)</text>
    <rect x="80" y="200" width="40" height="22" rx="4" fill="#ffffff" stroke="#cfe3d3"/>
    <text x="100" y="216" font-family="Segoe UI, Arial" font-size="12" font-weight="700" fill="#214f3f">1</text>
    <text x="132" y="212" font-family="Segoe UI, Arial" font-size="12" fill="#234c3c">L(2) 5000.00 mm</text>
  </g>

  <text x="40" y="236" font-family="Segoe UI, Arial" font-size="12" fill="#233e32">Un-braced length of minor axis</text>
  <g id="minor-length">
    <text x="40" y="252" font-family="Segoe UI, Arial" font-size="12" fill="#516b5f">K(1)</text>
    <rect x="80" y="240" width="40" height="22" rx="4" fill="#ffffff" stroke="#cfe3d3"/>
    <text x="100" y="256" font-family="Segoe UI, Arial" font-size="12" font-weight="700" fill="#214f3f">1</text>
    <text x="132" y="252" font-family="Segoe UI, Arial" font-size="12" fill="#234c3c">L(1) 5000.00 mm</text>
  </g>

  <text x="40" y="276" font-family="Segoe UI, Arial" font-size="12" fill="#233e32">Un-braced torsional length, 13.3.2:</text>
  <g id="torsional-length">
    <text x="40" y="292" font-family="Segoe UI, Arial" font-size="12" fill="#516b5f">Kz</text>
    <rect x="80" y="280" width="40" height="22" rx="4" fill="#ffffff" stroke="#cfe3d3"/>
    <text x="100" y="296" font-family="Segoe UI, Arial" font-size="12" font-weight="700" fill="#214f3f">1</text>
    <text x="132" y="292" font-family="Segoe UI, Arial" font-size="12" fill="#234c3c">Lz 5000.00 mm</text>
  </g>

  <text x="40" y="316" font-family="Segoe UI, Arial" font-size="12" fill="#233e32">Un-braced length (Above Neutral Axis), 13.6:</text>
  <g id="above-na-length">
    <text x="40" y="332" font-family="Segoe UI, Arial" font-size="12" fill="#516b5f">Ke(Top)</text>
    <rect x="110" y="320" width="40" height="22" rx="4" fill="#ffffff" stroke="#cfe3d3"/>
    <text x="130" y="336" font-family="Segoe UI, Arial" font-size="12" font-weight="700" fill="#214f3f">1</text>
    <text x="172" y="332" font-family="Segoe UI, Arial" font-size="12" fill="#234c3c">Le(Top) 5000.00 mm</text>
  </g>

  <text x="40" y="356" font-family="Segoe UI, Arial" font-size="12" fill="#233e32">Un-braced length (Below Neutral Axis), 13.6:</text>
  <g id="below-na-length">
    <text x="40" y="372" font-family="Segoe UI, Arial" font-size="12" fill="#516b5f">Ke(Bottom)</text>
    <rect x="110" y="360" width="40" height="22" rx="4" fill="#ffffff" stroke="#cfe3d3"/>
    <text x="130" y="376" font-family="Segoe UI, Arial" font-size="12" font-weight="700" fill="#214f3f">1</text>
    <text x="172" y="372" font-family="Segoe UI, Arial" font-size="12" fill="#234c3c">Le(Bottom) 5000.00 mm</text>
  </g>

  <!-- ULS Utilization (expanded) -->
  <rect x="28" y="420" width="296" height="160" rx="6" fill="#fbfdfb" stroke="#e9efe9"/>
  <text x="40" y="298" font-family="Segoe UI, Arial" font-size="13" font-weight="700" fill="#1f4537">ULS Utilization</text>

  <g font-family="Segoe UI, Arial" font-size="12" fill="#233e32">
    <text x="40" y="318">Tu/Tr</text>
    <text x="220" y="318" font-weight="600">0%</text>

    <text x="40" y="336">Cu/Cr</text>
    <text x="220" y="336" font-weight="600">0%</text>

    <text x="40" y="354">Mu/Mr (Major)</text>
    <text x="220" y="354" font-weight="600">20.89%</text>

    <text x="40" y="372">Mu/Mr (Minor)</text>
    <text x="220" y="372" font-weight="600">N/A</text>

    <text x="40" y="390">Vu/Vr (Major)</text>
    <text x="220" y="390" font-weight="600">4.56%</text>

    <text x="40" y="408">Von Mises</text>
    <text x="220" y="408" font-weight="600">19.74% (62.18 MPa)</text>
  </g>

  <!-- Member Capacity (expanded) -->
  <rect x="28" y="592" width="296" height="140" rx="6" fill="#fbfdfb" stroke="#e9efe9"/>
  <text x="40" y="470" font-family="Segoe UI, Arial" font-size="13" font-weight="700" fill="#1f4537">Member Capacity</text>

  <g font-family="Segoe UI, Arial" font-size="12" fill="#233e32">
    <text x="40" y="490">Cr</text>
    <text x="120" y="490" font-weight="600">0 kN</text>

    <text x="40" y="508">Tr</text>
    <text x="120" y="508" font-weight="600">1609.37 kN</text>

    <text x="40" y="526">Vrx-x</text>
    <text x="120" y="526" font-weight="600">685.43 kN</text>

    <text x="40" y="544">Vry-y</text>
    <text x="120" y="544" font-weight="600">777.84 kN</text>

    <text x="40" y="562">Mrx-x</text>
    <text x="120" y="562" font-weight="600">149.56 kN.m</text>

    <text x="180" y="490">Axial Class</text>
    <text x="260" y="490" font-weight="600">3</text>

    <text x="180" y="508">Flexural Class</text>
    <text x="260" y="508" font-weight="600">1</text>
  </g>

  <!-- Section Properties (expanded) -->
  <rect x="28" y="740" width="296" height="120" rx="6" fill="#fbfdfb" stroke="#e9efe9"/>
  <text x="40" y="622" font-family="Segoe UI, Arial" font-size="13" font-weight="700" fill="#1f4537">Section Properties</text>

  <g font-family="Segoe UI, Arial" font-size="12" fill="#233e32">
    <text x="40" y="642">Section:</text>
    <text x="120" y="642" font-weight="600">SAISC - I 254×146×43</text>

    <text x="40" y="660">Ag</text>
    <text x="120" y="660" font-weight="600">5500 mm²</text>

    <text x="40" y="678">Mass</text>
    <text x="120" y="678" font-weight="600">0 kg/m</text>

    <text x="40" y="696">I (Major)</text>
    <text x="120" y="696" font-weight="600">6,550,000 mm⁴</text>

    <text x="40" y="714">I (Minor)</text>
    <text x="120" y="714" font-weight="600">6,770,000 mm⁴</text>

    <text x="40" y="732">r (Major)</text>
    <text x="120" y="732" font-weight="600">109.13 mm</text>
  </g>

  <!-- Footer actions -->
  <g id="footer">
    <circle cx="300" cy="760" r="20" fill="#e9f2ec" stroke="#bdd7c3"/>
    <text x="293" y="766" font-family="Segoe UI, Arial" font-size="16" fill="#2e6b4f">≡</text>

    <circle cx="300" cy="712" r="20" fill="#2f6f52"/>
    <text x="292" y="718" font-family="Segoe UI, Arial" font-size="14" fill="#ffffff">X</text>

    <circle cx="300" cy="664" r="20" fill="#2f6f52"/>
    <text x="292" y="670" font-family="Segoe UI, Arial" font-size="14" fill="#ffffff">→</text>
  </g>

  <text x="28" y="786" font-family="Segoe UI, Arial" font-size="10" fill="#777">All sections expanded — tap headers to collapse. Empty values hidden in real UI.</text>
</svg>